<svg version="1.1" xmlns="http://www.w3.org/2000/svg" xmlns:xlink="http://www.w3.org/1999/xlink" x="0px" y="0px" viewBox="0 0 256 256" enable-background="new 0 0 256 256" xml:space="preserve">
  <g>
    <path fill="#d12346" d="M162.7,197.4l-14.3-11.3l13.2-13.4" />
    <path fill="#e0efec" d="M91.5,109.8h78.4l-24.3,77.3l16.6,51.7H99.1l14.6-51.3L91.5,109.8z" />
    <path fill="#e0efec"
      d="M112.5,238.3c0,3.5-2.8,6.3-6.4,6.3c-3.5,0-6.4-2.8-6.4-6.3C99.8,234.8,112.5,234.8,112.5,238.3z  M161.9,238.3c0,3.5-2.8,6.3-6.3,6.3c-3.5,0-6.4-2.8-6.4-6.3C149.2,234.8,161.9,234.8,161.9,238.3z" />
    <path fill="#e0efec"
      d="M125.2,239c0,3.5-2.8,6.4-6.4,6.4c-3.5,0-6.4-2.8-6.4-6.4C112.5,235.5,125.2,235.5,125.2,239z M149.6,239 c0,3.5-2.8,6.4-6.4,6.4c-3.5,0-6.4-2.8-6.4-6.4C136.9,235.5,149.6,235.5,149.6,239z" />
    <path fill="#e0efec" d="M137,239.6c0,3.5-2.8,6.4-6.3,6.4c-3.5,0-6.4-2.8-6.4-6.4C124.3,236.1,137,236.1,137,239.6z" />
    <path fill="#df6134" d="M111.8,182.3c-2,3.8-2.3,6,0,9h35.3v-8.9C147.2,182.4,117,182.5,111.8,182.3z" />
    <path fill="#df6134" d="M157,198.5l-14.3-11.3l13.2-13.4" />
    <path fill="#d82535" d="M159.1,121.2c-11,6.5-22.7,0.5-22.7,0.5s5.4-15.3,15.3-16.8c8.2-3.7,13.3,3.8,13.3,3.8 S167.4,117.5,159.1,121.2L159.1,121.2z" />
    <path fill="#d65075" d="M156.6,105.5c-7.8,10.2-20.9,9-20.9,9s-0.7-16.2,7.9-21.3c6.2-6.6,13.7-1.4,13.7-1.4 S162.9,98.9,156.6,105.5z" />
    <path fill="#d82535" d="M143.5,100.2c-3.5,12.3-16.1,16-16.1,16s-6.6-14.8-0.5-22.7c3.4-8.4,12.2-6.4,12.2-6.4 S146.9,91.8,143.5,100.2z" />
    <path fill="#d65075" d="M129.3,88.5c6.6,11,0.7,22.7,0.7,22.7S114.6,105.9,113,96c-3.8-8.2,3.7-13.3,3.7-13.3 S125.5,80.3,129.3,88.5z" />
    <path fill="#d65075" d="M129.3,88.5c6.6,11,0.7,22.7,0.7,22.7S114.6,105.9,113,96c-3.8-8.2,3.7-13.3,3.7-13.3 S125.5,80.3,129.3,88.5z" />
    <path fill="#d82535" d="M115.3,100.6c12.7,1.9,18,13.9,18,13.9s-13.8,8.4-22.5,3.4c-8.8-2.3-7.9-11.3-7.9-11.3 S106.6,98.3,115.3,100.6z" />
    <path fill="#d65075" d="M112.9,119.1c7.8-10.1,20.9-8.9,20.9-8.9s0.7,16.2-8,21.3c-6.3,6.5-13.7,1.4-13.7,1.4 S106.7,125.6,112.9,119.1z" />
    <path fill="#d82535" d="M123.5,129.9c-0.4-12.8,10.5-20.2,10.5-20.2s10.8,12.1,7.4,21.5c-0.7,9-9.7,9.8-9.7,9.8 S122.9,138.9,123.5,129.9z" />
    <path fill="#d65075" d="M138.5,132.2c-8.7-9.4-5.4-22.1-5.4-22.1s16.1,2,19.7,11.3c5.4,7.2-0.9,13.8-0.9,13.8 S143.9,139.4,138.5,132.2z" />
    <path fill="#e0cb6c" d="M126.6,110.4c0,2.4,2.3,4.4,5.2,4.4c2.9,0,5.2-2,5.2-4.4s-2.3-4.4-5.2-4.4C128.9,106,126.6,108,126.6,110.4 z" />
    <path fill="#d82535" d="M126.4,98c-8.5,9.6-21.5,7.5-21.5,7.5s0.4-16.2,9.4-20.7c6.7-6.1,13.8-0.5,13.8-0.5S133.1,91.9,126.4,98z" />
    <path fill="#d65075" d="M119.1,83.9c-4.3,12.1-17.1,15-17.1,15s-5.7-15.2,0.9-22.7c3.9-8.2,12.6-5.6,12.6-5.6S123,75.7,119.1,83.9z " />
    <path fill="#d82535" d="M105,82.9c0.5,12.8-10.4,20.2-10.4,20.2s-10.9-12-7.5-21.5c0.6-9,9.7-9.8,9.7-9.8S105.7,73.9,105,82.9z" />
    <path fill="#d65075" d="M87.9,76.2c9.7,8.4,7.7,21.4,7.7,21.4s-16.2-0.3-20.8-9.2c-6.2-6.6-0.6-13.8-0.6-13.8S81.7,69.5,87.9,76.2z " />
    <path fill="#d65075" d="M87.9,76.2c9.7,8.4,7.7,21.4,7.7,21.4s-16.2-0.3-20.8-9.2c-6.2-6.6-0.6-13.8-0.6-13.8S81.7,69.5,87.9,76.2z " />
    <path fill="#d82535" d="M78.3,92c12.6-2.1,21.4,7.7,21.4,7.7s-10.6,12.3-20.3,10.2c-9,0.5-11-8.3-11-8.3S69.3,92.6,78.3,92z" />
    <path fill="#d65075" d="M81.8,110.4c4.3-12.1,17.1-14.9,17.1-14.9s5.6,15.2-1,22.7c-3.9,8.2-12.6,5.6-12.6,5.6 S77.9,118.5,81.8,110.4z" />
    <path fill="#d82535" d="M95.2,117.3c-4.4-12,3.7-22.4,3.7-22.4s14,8.1,13.7,18.1c2.2,8.8-6.2,12.3-6.2,12.3S97.4,126.1,95.2,117.3z " />
    <path fill="#d65075" d="M110.2,114.9C99,108.6,98.2,95.5,98.2,95.5s15.9-3.1,22.2,4.7c7.4,5.2,3.4,13.4,3.4,13.4 S117.6,120.1,110.2,114.9z" />
    <path fill="#e0cb6c" d="M98.4,100.4c2.7-0.9,4.3-3.5,3.6-5.8c-0.8-2.3-3.6-3.5-6.3-2.6c0,0,0,0,0,0c-2.7,0.9-4.3,3.5-3.6,5.8 C92.8,100.2,95.6,101.3,98.4,100.4C98.4,100.5,98.4,100.4,98.4,100.4z" />
    <path fill="#d82535" d="M179.5,118.3c-12.8-1.2-18.7-12.9-18.7-12.9s13.3-9.2,22.2-4.7c8.9,1.8,8.5,10.8,8.5,10.8 S188.4,120,179.5,118.3L179.5,118.3z" />
    <path fill="#d65075" d="M186.7,104c-12.3,3.7-22.2-4.9-22.2-4.9s8.9-13.6,18.8-12.7c8.9-1.7,12,6.8,12,6.8S195.6,102.4,186.7,104z" />
    <path fill="#d82535" d="M179.1,92.1c-10,8-22.4,3.6-22.4,3.6s3.3-15.9,12.9-18.7c7.6-4.8,13.7,2,13.7,2S186.7,87.3,179.1,92.1z" />
    <path fill="#d65075" d="M174.4,74.3c-1.1,12.8-12.7,18.8-12.7,18.8s-9.3-13.3-4.9-22.2c1.7-8.9,10.8-8.6,10.8-8.6 S176.1,65.4,174.4,74.3z" />
    <path fill="#d65075" d="M174.4,74.3c-1.1,12.8-12.7,18.8-12.7,18.8s-9.3-13.3-4.9-22.2c1.7-8.9,10.8-8.6,10.8-8.6 S176.1,65.4,174.4,74.3z" />
    <path fill="#d82535" d="M156,76c9.2,8.9,6.4,21.8,6.4,21.8s-16.2-1.2-20.2-10.4c-5.8-7,0.2-13.8,0.2-13.8S150.2,69,156,76L156,76z" />
    <path fill="#d65075" d="M143.2,89.6c12.3-3.7,22.2,5,22.2,5s-8.9,13.5-18.9,12.6c-8.9,1.7-12-6.9-12-6.9S134.3,91.2,143.2,89.6 L143.2,89.6z" />
    <path fill="#d82535" d="M145.5,104.5c7.1-10.6,20.3-10.3,20.3-10.3s1.7,16.1-6.5,21.8c-5.8,6.9-13.6,2.3-13.6,2.3 S139.7,111.5,145.5,104.5z" />
    <path fill="#d65075" d="M156.4,115.1c-1.6-12.7,8.5-21.1,8.5-21.1s11.9,11,9.4,20.7c0.2,9-8.7,10.7-8.7,10.7 S156.5,124.2,156.4,115.1z" />
    <path fill="#e0cb6c" d="M167.8,96.5c-1.4,2-4.5,2.2-6.8,0.6c-2.3-1.7-3.1-4.6-1.6-6.6c1.4-2,4.5-2.2,6.8-0.6S169.2,94.6,167.8,96.5 z" />
    <path fill="#d82535" d="M202.6,64.9c-11,6.5-22.7,0.5-22.7,0.5s5.4-15.3,15.3-16.8c8.2-3.7,13.3,3.8,13.3,3.8 S210.9,61.2,202.6,64.9L202.6,64.9z" />
    <path fill="#d65075" d="M200.1,49.2c-7.8,10.2-20.9,9-20.9,9s-0.7-16.2,7.9-21.3c6.2-6.6,13.7-1.4,13.7-1.4S206.4,42.6,200.1,49.2z " />
    <path fill="#d82535" d="M187,44c-3.5,12.3-16.1,16-16.1,16s-6.6-14.8-0.5-22.7c3.4-8.4,12.2-6.4,12.2-6.4S190.4,35.6,187,44L187,44 z" />
    <path fill="#d65075" d="M172.8,32.2c6.6,11,0.7,22.7,0.7,22.7s-15.3-5.3-16.9-15.2c-3.8-8.2,3.7-13.3,3.7-13.3S169,24,172.8,32.2z" />
    <path fill="#d65075" d="M172.8,32.2c6.6,11,0.7,22.7,0.7,22.7s-15.3-5.3-16.9-15.2c-3.8-8.2,3.7-13.3,3.7-13.3S169,24,172.8,32.2z" />
    <path fill="#d82535" d="M158.8,44.4c12.7,1.9,18,13.9,18,13.9s-13.8,8.4-22.5,3.4c-8.8-2.3-7.9-11.3-7.9-11.3 S150.1,42.1,158.8,44.4z" />
    <path fill="#d65075" d="M156.4,62.8c7.8-10.1,20.9-8.9,20.9-8.9s0.7,16.2-8,21.3c-6.2,6.5-13.7,1.4-13.7,1.4S150.2,69.4,156.4,62.8 z" />
    <path fill="#d82535" d="M167,73.6c-0.4-12.8,10.5-20.2,10.5-20.2s10.8,12.1,7.4,21.5c-0.7,9-9.7,9.8-9.7,9.8S166.4,82.6,167,73.6z" />
    <path fill="#d65075" d="M182,75.9c-8.7-9.4-5.4-22.1-5.4-22.1s16.1,2,19.7,11.3c5.4,7.2-0.9,13.8-0.9,13.8S187.4,83.1,182,75.9z" />
    <path fill="#e0cb6c" d="M170,54.1c0,2.4,2.3,4.4,5.2,4.4c2.9,0,5.2-2,5.2-4.4l0,0c0-2.4-2.3-4.4-5.2-4.4 C172.4,49.7,170,51.7,170,54.1z" />
    <path fill="#d82535" d="M103.4,69.9c-11,6.5-22.7,0.5-22.7,0.5S86.2,55.1,96,53.6c8.2-3.7,13.3,3.8,13.3,3.8S111.7,66.2,103.4,69.9 z" />
    <path fill="#d65075" d="M101,54.2c-7.8,10.2-20.9,9-20.9,9S79.4,46.9,88,41.8c6.2-6.6,13.7-1.4,13.7-1.4S107.2,47.6,101,54.2z" />
    <path fill="#d82535" d="M87.8,48.9c-3.5,12.3-16.1,16-16.1,16s-6.6-14.8-0.5-22.7c3.4-8.4,12.2-6.4,12.2-6.4S91.2,40.5,87.8,48.9z" />
    <path fill="#d65075" d="M73.6,37.2c6.6,11,0.7,22.7,0.7,22.7s-15.3-5.3-16.9-15.2c-3.8-8.2,3.7-13.3,3.7-13.3S69.8,29,73.6,37.2z" />
    <path fill="#d65075" d="M73.6,37.2c6.6,11,0.7,22.7,0.7,22.7s-15.3-5.3-16.9-15.2c-3.8-8.2,3.7-13.3,3.7-13.3S69.8,29,73.6,37.2z" />
    <path fill="#d82535" d="M59.6,49.3c12.7,1.9,18,13.9,18,13.9s-13.8,8.5-22.5,3.4c-8.8-2.3-7.9-11.3-7.9-11.3S50.9,47,59.6,49.3z" />
    <path fill="#d65075" d="M57.2,67.8c7.8-10.1,20.9-8.9,20.9-8.9s0.7,16.2-8,21.3c-6.3,6.5-13.7,1.4-13.7,1.4S51,74.4,57.2,67.8z" />
    <path fill="#d82535" d="M67.8,78.6c-0.4-12.8,10.5-20.2,10.5-20.2s10.8,12.1,7.4,21.5c-0.7,9-9.7,9.8-9.7,9.8S67.2,87.6,67.8,78.6z " />
    <path fill="#d65075" d="M82.8,80.9c-8.7-9.4-5.4-22.1-5.4-22.1s16.1,2,19.7,11.3c5.4,7.2-0.9,13.8-0.9,13.8S88.2,88.1,82.8,80.9 L82.8,80.9z" />
    <path fill="#e0cb6c" d="M70.9,59.1c0,2.4,2.3,4.4,5.2,4.4c2.9,0,5.2-2,5.2-4.4l0,0c0-2.4-2.3-4.4-5.2-4.4 C73.2,54.7,70.9,56.7,70.9,59.1L70.9,59.1z" />
    <path fill="#d82535" d="M149.2,48.8c-11,6.5-22.7,0.5-22.7,0.5s5.4-15.3,15.3-16.8c8.2-3.7,13.2,3.8,13.2,3.8 S157.4,45.1,149.2,48.8L149.2,48.8z" />
    <path fill="#d65075" d="M146.7,33.1c-7.8,10.2-20.9,9-20.9,9s-0.7-16.2,7.9-21.3c6.2-6.6,13.7-1.4,13.7-1.4S152.9,26.5,146.7,33.1z " />
    <path fill="#d82535" d="M133.5,27.8c-3.5,12.3-16.1,16-16.1,16s-6.6-14.8-0.5-22.7c3.4-8.4,12.2-6.4,12.2-6.4 S136.9,19.5,133.5,27.8z" />
    <path fill="#d65075" d="M119.3,16.1c6.6,11,0.7,22.7,0.7,22.7s-15.3-5.3-16.9-15.2c-3.8-8.2,3.7-13.3,3.7-13.3 S115.5,7.9,119.3,16.1z" />
    <path fill="#d65075" d="M119.3,16.1c6.6,11,0.7,22.7,0.7,22.7s-15.3-5.3-16.9-15.2c-3.8-8.2,3.7-13.3,3.7-13.3 S115.5,7.9,119.3,16.1z" />
    <path fill="#d82535" d="M105.3,28.2c12.7,1.9,18,13.9,18,13.9s-13.8,8.5-22.5,3.4c-8.8-2.3-7.9-11.3-7.9-11.3S96.6,26,105.3,28.2z" />
    <path fill="#d65075" d="M102.9,46.7c7.8-10.1,20.9-8.9,20.9-8.9s0.7,16.2-8,21.3c-6.3,6.5-13.7,1.4-13.7,1.4S96.7,53.3,102.9,46.7z " />
    <path fill="#d82535" d="M113.6,57.5C113.1,44.7,124,37.3,124,37.3s10.8,12.1,7.4,21.5c-0.7,9-9.7,9.8-9.7,9.8 S112.9,66.5,113.6,57.5z" />
    <path fill="#d65075" d="M128.5,59.8c-8.7-9.4-5.4-22.1-5.4-22.1s16.1,2,19.7,11.3c5.4,7.2-0.9,13.8-0.9,13.8S134,67,128.5,59.8z" />
    <path fill="#e0cb6c" d="M116.6,38c0,2.4,2.3,4.4,5.2,4.4c2.9,0,5.2-2,5.2-4.4l0,0c0-2.4-2.3-4.4-5.2-4.4 C118.9,33.6,116.6,35.6,116.6,38L116.6,38z" />
    <path fill="#d82535" d="M155.6,82.1c-11,6.5-22.7,0.5-22.7,0.5s5.4-15.3,15.3-16.8c8.2-3.7,13.3,3.8,13.3,3.8 S163.9,78.3,155.6,82.1L155.6,82.1z" />
    <path fill="#d65075" d="M153.1,66.4c-7.8,10.2-20.9,9-20.9,9s-0.7-16.2,7.9-21.3c6.2-6.6,13.7-1.4,13.7-1.4S159.4,59.8,153.1,66.4 L153.1,66.4z" />
    <path fill="#d82535" d="M140,61.1c-3.5,12.3-16.1,16-16.1,16s-6.6-14.8-0.5-22.7c3.4-8.4,12.2-6.4,12.2-6.4S143.4,52.7,140,61.1 L140,61.1z" />
    <path fill="#d65075" d="M125.8,49.4c6.6,11,0.7,22.7,0.7,22.7s-15.3-5.3-16.9-15.2c-3.8-8.2,3.7-13.3,3.7-13.3S122,41.1,125.8,49.4 z" />
    <path fill="#d65075" d="M125.8,49.4c6.6,11,0.7,22.7,0.7,22.7s-15.3-5.3-16.9-15.2c-3.8-8.2,3.7-13.3,3.7-13.3S122,41.1,125.8,49.4 z" />
    <path fill="#d82535" d="M111.8,61.5c12.7,1.9,18,13.9,18,13.9s-13.8,8.4-22.5,3.4c-8.8-2.3-7.9-11.3-7.9-11.3 S103.1,59.2,111.8,61.5z" />
    <path fill="#d65075" d="M109.4,80c7.8-10.1,20.9-8.9,20.9-8.9s0.6,16.2-8,21.3c-6.3,6.5-13.7,1.4-13.7,1.4S103.2,86.5,109.4,80z" />
    <path fill="#d82535" d="M120,90.8c-0.4-12.8,10.5-20.2,10.5-20.2s10.8,12.1,7.4,21.5c-0.7,9-9.7,9.8-9.7,9.8S119.4,99.8,120,90.8z" />
    <path fill="#d65075" d="M135,93.1c-8.7-9.4-5.4-22.1-5.4-22.1s16.1,2,19.7,11.3c5.4,7.2-0.9,13.8-0.9,13.8S140.4,100.3,135,93.1 L135,93.1z" />
    <path fill="#e0cb6c" d="M123.1,71.3c0,2.4,2.3,4.4,5.2,4.4c2.9,0,5.2-2,5.2-4.4c0,0,0,0,0,0c0-2.4-2.3-4.4-5.2-4.4 C125.4,66.8,123.1,68.8,123.1,71.3C123.1,71.3,123.1,71.3,123.1,71.3z" />
  </g>
</svg>
