<svg width="25" height="20" viewBox="0 0 25 20" fill="none" xmlns="http://www.w3.org/2000/svg">
  <path
    d="M24.7588 2.36717C23.8116 2.76883 22.7929 3.04029 21.7241 3.16259C22.8149 2.53743 23.6525 1.54801 24.0471 0.36927C23.0262 0.948099 21.8956 1.36795 20.6913 1.59426C19.7278 0.613218 18.3544 0 16.8345 0C13.9158 0 11.5503 2.26041 11.5503 5.04887C11.5503 5.44474 11.5966 5.83021 11.687 6.19951C7.295 5.98923 3.4013 3.97853 0.7949 0.924148C0.34 1.66952 0.0794 2.53671 0.0794 3.46218C0.0794 5.21411 1.0119 6.75926 2.4303 7.66504C1.5641 7.63916 0.7491 7.41194 0.0366 7.03349C0.0356 7.05477 0.0356 7.07575 0.0356 7.09687C0.0356 9.54362 1.8574 11.5838 4.2746 12.048C3.8316 12.1634 3.3648 12.2244 2.8828 12.2244C2.542 12.2244 2.2115 12.1936 1.8883 12.1344C2.5612 14.1402 4.5124 15.6002 6.8252 15.641C5.0152 16.9955 2.737 17.8022 0.261 17.8022C-0.1653 17.8022 -0.5863 17.7783 -1 17.7319C1.3396 19.1644 4.1169 20 7.1015 20C16.8212 20 22.1358 12.3067 22.1358 5.63404C22.1358 5.41524 22.1305 5.19793 22.1209 4.9814C23.1529 4.26896 24.0487 3.37993 24.7576 2.36721"
    fill="#D89999" />
</svg>
  